<?xml version="1.0" encoding="UTF-8" standalone="no"?>
<!-- Created with Inkscape (http://www.inkscape.org/) -->
<svg id="svg2" xmlns:rdf="http://www.w3.org/1999/02/22-rdf-syntax-ns#" xmlns="http://www.w3.org/2000/svg" height="94.964" width="94.582" version="1.1" xmlns:cc="http://creativecommons.org/ns#" xmlns:dc="http://purl.org/dc/elements/1.1/">
 <metadata id="metadata7">
  <rdf:RDF>
   <cc:Work rdf:about="">
    <dc:format>image/svg+xml</dc:format>
    <dc:type rdf:resource="http://purl.org/dc/dcmitype/StillImage"/>
    <dc:title/>
   </cc:Work>
  </rdf:RDF>
 </metadata>
 <path id="path2985" fill="#f5ec2e" d="m91.817,47.481a44.893,44.893,0,0,1,-89.787,0,44.893,44.893,0,1,1,89.787,0z"/>
 <path id="path3759" fill="#ed2b24" d="m33.961,47.013a12.049,5.1767,0,0,1,-24.098,0,12.049,5.1767,0,1,1,24.098,0z"/>
 <path id="path3759-3" fill="#ed2b24" d="m84.573,46.505a12.049,5.1767,0,0,1,-24.098,0,12.049,5.1767,0,1,1,24.098,0z"/>
 <a id="a3787" transform="matrix(1.1305428,0,0,1.1622868,-8.5904544,-1114.8882)"/>
 <a id="a3787-3" transform="matrix(-1.1272199,0,0,1.162454,101.72732,-1113.7898)"/>
 <a id="a3787-5" transform="matrix(-1.1438997,0,0,1.1616561,105.40178,-1112.0516)"/>
 <path id="path3905" stroke-linejoin="miter" d="m92.177,47.481a44.893,44.893,0,1,1,-89.787,0,44.893,44.893,0,1,1,89.787,0z" stroke-dashoffset="0" stroke="#0e1d24" stroke-miterlimit="0.40000001" stroke-dasharray="none" stroke-width="5" fill="none"/>
 <rect id="rect3030" stroke-linejoin="miter" stroke-dasharray="none" stroke-dashoffset="0" height="13.676" width="70.258" stroke="#0e1d24" stroke-miterlimit="4" y="61.727" x="12.713" stroke-width="1.6989" fill="#FFF"/>
 <path id="path3800" stroke-linejoin="miter" d="m22.5,61.808,0.1802,13.695" stroke="#0e1d24" stroke-linecap="butt" stroke-width="1px" fill="none"/>
 <path id="path3800-1" stroke-linejoin="miter" d="M32.5,61.447,32.68,75.142" stroke="#0e1d24" stroke-linecap="butt" stroke-width="1px" fill="none"/>
 <path id="path3800-1-1" stroke-linejoin="miter" d="m42.5,61.627,0.1802,13.695" stroke="#0e1d24" stroke-linecap="butt" stroke-width="1px" fill="none"/>
 <path id="path3800-18" stroke-linejoin="miter" d="m52.5,60.907,0.1802,13.695" stroke="#0e1d24" stroke-linecap="butt" stroke-width="1px" fill="none"/>
 <path id="path3800-1-7" stroke-linejoin="miter" d="m62.5,61.627,0.1802,13.695" stroke="#0e1d24" stroke-linecap="butt" stroke-width="1px" fill="none"/>
 <path id="path3800-1-1-7" stroke-linejoin="miter" d="m72.5,61.267,0.1802,13.695" stroke="#0e1d24" stroke-linecap="butt" stroke-width="1px" fill="none"/>
 <path id="path3864" stroke-linejoin="miter" d="M32.457,22.427,36.817,36.285,13.132,28.178" stroke="#0e1d24" stroke-linecap="butt" stroke-miterlimit="4" stroke-dasharray="none" stroke-width="2.5" fill="none"/>
 <path id="path3866" stroke-linejoin="miter" d="M34.418,37.661a6.8475,6.4871,0,1,1,-12.448,-3.733" transform="matrix(0.99498663,0.00272141,-0.0030061,1.0990701,1.6804437,-4.8570571)" stroke-dashoffset="0" stroke="#0e1d24" stroke-miterlimit="4" stroke-dasharray="none" stroke-width="1.5" fill="#0e1d24"/>
 <path id="path3864-5" stroke-linejoin="miter" d="M62.297,22.648,57.822,36.521,81.885,28.342" stroke="#0e1d24" stroke-linecap="butt" stroke-miterlimit="4" stroke-dasharray="none" stroke-width="2.51835203" fill="none"/>
 <path id="path3866-5" stroke-linejoin="miter" d="M34.418,37.661a6.8475,6.4871,0,1,1,-12.448,-3.733" transform="matrix(-1.0096283,0.0057361,-9.8042004e-4,1.0991056,93.625789,-4.7298457)" stroke-dashoffset="0" stroke="#0e1d24" stroke-miterlimit="4" stroke-dasharray="none" stroke-width="1.5" fill="#0e1d24"/>
</svg>
