<?xml version="1.0" encoding="UTF-8" standalone="no"?>
<!-- Created with Inkscape (http://www.inkscape.org/) -->
<svg id="svg2" xmlns:rdf="http://www.w3.org/1999/02/22-rdf-syntax-ns#" xmlns="http://www.w3.org/2000/svg" height="112.2" width="188.93" version="1.1" xmlns:cc="http://creativecommons.org/ns#" xmlns:dc="http://purl.org/dc/elements/1.1/">
 <metadata id="metadata7">
  <rdf:RDF>
   <cc:Work rdf:about="">
    <dc:format>image/svg+xml</dc:format>
    <dc:type rdf:resource="http://purl.org/dc/dcmitype/StillImage"/>
    <dc:title/>
   </cc:Work>
  </rdf:RDF>
 </metadata>
 <path id="path3765" stroke-linejoin="miter" d="M168.03,101.59,151.73,94.209,84.679,93.484,21.613,93.221,13.014,89.777c-2.975-1.191-5.6834-5.286-7.207-8.561-2.4174-5.195-2.5957-7.863-2.5957-38.865,0-37.51-0.2916-36.351,9.7257-38.693,4.546-1.0625,91.163-0.1557,136.92,1.4334,13.156,0.45695,17.532,2.3318,19.888,8.5197,2.0137,5.2911,2.1332,10.194,0.96623,39.618l-1.0696,26.969,6.6277,11.496c3.6452,6.323,7.4368,12.817,8.4259,14.43,0.98901,1.6136,1.3103,2.9127,0.71401,2.887-0.59631-0.0257-8.4163-3.367-17.378-7.425z" stroke-dashoffset="0" stroke="#0e1d24" stroke-miterlimit="4" stroke-dasharray="none" stroke-width="6.39188385" fill="#FFF"/>
 <text id="text2985" font-size="28.63563919px" line-height="125%" transform="scale(0.98043261,1.0199579)" font-family="Courier 10 Pitch" xml:space="preserve" style="letter-spacing:-3.99109221px;word-spacing:0px;" font-style="normal" font-stretch="normal" font-variant="normal" y="37.231178" x="92.487236" font-weight="normal" fill="#0e1d24"><tspan id="tspan2989" y="37.231178" x="97.109215" style="text-anchor:middle;text-align:center;">F1N3 TH3N! </tspan><tspan id="tspan2993" y="73.025726" x="90.491692" style="text-anchor:middle;text-align:center;">DD0S ATT4CK!</tspan></text>
</svg>
