<?xml version="1.0" encoding="UTF-8" standalone="no"?>
<!-- Created with Inkscape (http://www.inkscape.org/) -->
<svg id="svg2" xmlns:rdf="http://www.w3.org/1999/02/22-rdf-syntax-ns#" xmlns="http://www.w3.org/2000/svg" height="94.964" width="94.582" version="1.1" xmlns:cc="http://creativecommons.org/ns#" xmlns:dc="http://purl.org/dc/elements/1.1/">
 <metadata id="metadata7">
  <rdf:RDF>
   <cc:Work rdf:about="">
    <dc:format>image/svg+xml</dc:format>
    <dc:type rdf:resource="http://purl.org/dc/dcmitype/StillImage"/>
    <dc:title/>
   </cc:Work>
  </rdf:RDF>
 </metadata>
 <g id="layer1" transform="translate(-2.7160288,-953.88151)">
  <path id="path2985" stroke-linejoin="miter" d="m98.237,45.452c0,25.105-22.048,45.457-49.245,45.457s-49.245-20.352-49.245-45.457,22.048-45.457,49.245-45.457,49.245,20.352,49.245,45.457z" transform="matrix(0.91163185,0,0,0.98760122,5.3369704,956.47396)" stroke-dashoffset="0" stroke="#0e1d24" stroke-miterlimit="0.40000001" stroke-dasharray="none" stroke-width="5.26950073" fill="#f5ec2e"/>
  <path id="path3757" stroke-linejoin="miter" d="m56.539,1012,11.186,14.564-12.431,5.8592" stroke="#0e1d24" stroke-linecap="butt" stroke-miterlimit="4" stroke-dasharray="none" stroke-width="1.72932982" fill="none"/>
  <path id="path3759" d="m38.557,47.519c0,2.859-5.3946,5.1767-12.049,5.1767-6.6546,0-12.049-2.3177-12.049-5.1767s5.3946-5.1767,12.049-5.1767c6.6546,0,12.049,2.3177,12.049,5.1767z" transform="translate(0,957.31193)" fill="#ed2b24"/>
  <path id="path3759-3" d="m38.557,47.519c0,2.859-5.3946,5.1767-12.049,5.1767-6.6546,0-12.049-2.3177-12.049-5.1767s5.3946-5.1767,12.049-5.1767c6.6546,0,12.049,2.3177,12.049,5.1767z" transform="translate(49.991909,957.5426)" fill="#ed2b24"/>
  <a id="a3787" transform="matrix(1.1305428,0,0,1.1622868,-5.8744256,-161.00671)">
   <path id="path3783" d="M44.25,34.375c0,4.211-3.638,7.625-8.125,7.625s-8.125-3.414-8.125-7.625c0-4.2112,3.6377-7.625,8.125-7.625s8.125,3.4138,8.125,7.625z" transform="translate(0.75,950.11218)" fill="#0e1d24"/>
  </a>
  <path id="path3785" stroke-linejoin="miter" d="m43.989,983.6s0.4519-19.436-22.423-11.123" stroke="#0e1d24" stroke-linecap="butt" stroke-miterlimit="4" stroke-dasharray="none" stroke-width="2" fill="none"/>
  <a id="a3787-3" transform="matrix(-1.1272199,0,0,1.162454,104.44335,-159.9083)"/>
  <a id="a3787-5" transform="matrix(-1.1438997,0,0,1.1616561,108.11781,-158.17004)">
   <path id="path3783-8" d="M44.25,34.375c0,4.211-3.638,7.625-8.125,7.625s-8.125-3.414-8.125-7.625c0-4.2112,3.6377-7.625,8.125-7.625s8.125,3.4138,8.125,7.625z" transform="translate(0.75,950.11218)" fill="#0e1d24"/>
  </a>
  <path id="path3785-8" stroke-linejoin="miter" d="m57.665,985.81s-0.45724-19.425,22.688-11.117" stroke="#0e1d24" stroke-linecap="butt" stroke-miterlimit="4" stroke-dasharray="none" stroke-width="2.01123405" fill="none"/>
 </g>
</svg>
