<?xml version="1.0" encoding="UTF-8" standalone="no"?>
<!-- Created with Inkscape (http://www.inkscape.org/) -->
<svg id="svg2" xmlns:rdf="http://www.w3.org/1999/02/22-rdf-syntax-ns#" xmlns="http://www.w3.org/2000/svg" height="61.539" width="107.6" version="1.1" xmlns:cc="http://creativecommons.org/ns#" xmlns:dc="http://purl.org/dc/elements/1.1/">
 <metadata id="metadata7">
  <rdf:RDF>
   <cc:Work rdf:about="">
    <dc:format>image/svg+xml</dc:format>
    <dc:type rdf:resource="http://purl.org/dc/dcmitype/StillImage"/>
    <dc:title/>
   </cc:Work>
  </rdf:RDF>
 </metadata>
 <path id="path3765" stroke-linejoin="miter" d="m95.714,55.696-9.2857-4.0419-38.214-0.39678-35.941-0.14425-4.9007-1.8866c-1.6952-0.65261-3.2388-2.896-4.1071-4.6898-1.3777-2.846-1.4793-4.3073-1.4793-21.291,0-20.548-0.16618-19.913,5.5429-21.196,2.5906-0.58206,51.955-0.08527,78.029,0.78526,7.4975,0.25032,9.9916,1.2774,11.334,4.6672,1.1476,2.8985,1.2157,5.5844,0.55065,21.703l-0.60955,14.774,3.7771,6.2979c2.0774,3.4638,4.2382,7.0211,4.8019,7.905,0.56363,0.88393,0.74674,1.5956,0.40691,1.5815s-4.7964-1.8445-9.9036-4.0675z" stroke-dashoffset="0" stroke="#0e1d24" stroke-miterlimit="4" stroke-dasharray="none" stroke-width="3.57142854" fill="#FFF"/>
 <text id="text2985" font-size="16px" line-height="125%" font-family="Courier 10 Pitch" xml:space="preserve" style="letter-spacing:-2.23000002px;word-spacing:0px;" font-style="normal" font-stretch="normal" font-variant="normal" y="30.060436" x="49.713394" font-weight="normal" fill="#0e1d24"><tspan id="tspan2989" y="30.060436" x="52.295898" style="text-anchor:middle;text-align:center;">H3H3H3H3!</tspan></text>
</svg>
