<?xml version="1.0" encoding="UTF-8" standalone="no"?>
<!-- Created with Inkscape (http://www.inkscape.org/) -->
<svg id="svg2" xmlns:rdf="http://www.w3.org/1999/02/22-rdf-syntax-ns#" xmlns="http://www.w3.org/2000/svg" height="95.43" width="103.94" version="1.1" xmlns:cc="http://creativecommons.org/ns#" xmlns:dc="http://purl.org/dc/elements/1.1/">
 <metadata id="metadata7">
  <rdf:RDF>
   <cc:Work rdf:about="">
    <dc:format>image/svg+xml</dc:format>
    <dc:type rdf:resource="http://purl.org/dc/dcmitype/StillImage"/>
    <dc:title/>
   </cc:Work>
  </rdf:RDF>
 </metadata>
 <g id="layer1" transform="translate(5.1876579,-953.88151)">
  <path id="path2985" d="m98.237,45.452c0,25.105-22.048,45.457-49.245,45.457s-49.245-20.352-49.245-45.457,22.048-45.457,49.245-45.457,49.245,20.352,49.245,45.457z" transform="matrix(-0.91163185,0,0,0.98760122,86.773205,956.47396)" fill="#f5ec2e"/>
  <path id="path3759-3" d="m38.557,47.519c0,2.859-5.3946,5.1767-12.049,5.1767-6.6546,0-12.049-2.3177-12.049-5.1767s5.3946-5.1767,12.049-5.1767c6.6546,0,12.049,2.3177,12.049,5.1767z" transform="matrix(-1,0,0,1,50.868267,962.5426)" fill="#ed2b24"/>
  <a id="a3787" transform="matrix(1.1305428,0,0,1.1622868,-5.8744256,-161.00671)"/>
  <a id="a3787-3" transform="matrix(-1.1272199,0,0,1.162454,104.44335,-159.9083)"/>
  <a id="a3787-5" transform="matrix(-1.1438997,0,0,1.1616561,108.11781,-158.17004)"/>
  <path id="path3905" stroke-linejoin="miter" d="m98.237,45.452c0,25.105-22.048,45.457-49.245,45.457s-49.245-20.352-49.245-45.457,22.048-45.457,49.245-45.457,49.245,20.352,49.245,45.457z" transform="matrix(-0.91163185,0,0,0.98760122,86.773205,956.47396)" stroke-dashoffset="0" stroke="#0e1d24" stroke-miterlimit="0.40000001" stroke-dasharray="none" stroke-width="5.26950073" fill="none"/>
  <a id="a3787-5-2" transform="matrix(1.1438997,0,0,1.1616561,-9.7231943,-153.2965)">
   <path id="path3783-8" d="M44.25,34.375c0,4.211-3.638,7.625-8.125,7.625s-8.125-3.414-8.125-7.625c0-4.2112,3.6377-7.625,8.125-7.625s8.125,3.4138,8.125,7.625z" transform="translate(0.75,950.11218)" fill="#0e1d24"/>
  </a>
  <path id="path3785-8" stroke-linejoin="miter" d="m40.73,990.68s0.45724-19.425-22.688-11.117" stroke="#0e1d24" stroke-linecap="butt" stroke-miterlimit="4" stroke-dasharray="none" stroke-width="2.01123405" fill="none"/>
  <a id="a3787-5-6" transform="matrix(1.1438997,0,0,1.1616561,19.776808,-154.2965)">
   <path id="path3783-8-3" d="M44.25,34.375c0,4.211-3.638,7.625-8.125,7.625s-8.125-3.414-8.125-7.625c0-4.2112,3.6377-7.625,8.125-7.625s8.125,3.4138,8.125,7.625z" transform="translate(0.75,950.11218)" fill="#0e1d24"/>
  </a>
  <path id="path3785-8-8" stroke-linejoin="miter" d="m70.23,989.68s0.45724-19.425-22.688-11.117" stroke="#0e1d24" stroke-linecap="butt" stroke-miterlimit="4" stroke-dasharray="none" stroke-width="2.01123405" fill="none"/>
  <path id="path4207" stroke-linejoin="miter" d="m25.595,1043.2s44.97,14.647,69.446-14.426l-14.843-7.5106" stroke="#0e1d24" stroke-linecap="butt" stroke-miterlimit="4" stroke-dasharray="none" stroke-width="4.70432186" fill="none"/>
  <path id="path5653" stroke-linejoin="miter" d="m81.993,1025.1-4.1512-2.0141" stroke="#f6ec2e" stroke-linecap="butt" stroke-width="1px" fill="none"/>
  <path id="path5675" stroke-linejoin="miter" d="m64.185,1043.4c0.06077-0.01,0.55795-0.1085,1.1049-0.2185,10.199-2.0522,18.737-6.4691,25.289-13.083l0.60611-0.6118-4.0898-2.07c-2.2494-1.1385-4.0948-2.0633-4.101-2.055-0.0061,0.01-0.17811,0.2934-0.38221,0.6337-0.50827,0.8474-1.6796,2.5918-2.3147,3.4471-2.5461,3.429-5.4039,6.3929-8.6805,9.0026-2.2027,1.7544-4.8328,3.4861-7.1441,4.7039-0.29168,0.1536-0.5005,0.277-0.46404,0.2742,0.03646,0,0.11601-0.013,0.17678-0.024z" stroke-dashoffset="0" stroke="#f6ec2e" stroke-miterlimit="4" stroke-dasharray="none" stroke-width="0.1502602" fill="#f5ec2e"/>
  <path id="path5679" stroke-linejoin="miter" d="m90.136,1029.5-11.648-6.2461-1.625-0.4687" stroke="#f6ec2e" stroke-linecap="butt" stroke-width="1px" fill="none"/>
  <path id="path5685" stroke-linejoin="miter" d="m79.937,1024.8s-4.2426,10.253-14.761,15.556c-10.518,5.3033-25.809-6.9827-25.809-6.9827" stroke="#f6ec2e" stroke-linecap="butt" stroke-miterlimit="4" stroke-dasharray="none" stroke-width="5" fill="none"/>
  <path id="path5687" stroke-linejoin="miter" d="m82.765,1027.6-7.8666-4.1542-1.6794,7.2478-11.932,8.8389" stroke="#f6ec2e" stroke-linecap="butt" stroke-miterlimit="4" stroke-dasharray="none" stroke-width="4" fill="none"/>
  <path id="path5689" stroke-linejoin="miter" d="m60.668,1041.7s-16.882,0.5745-26.384-1.3258" stroke="#f6ec2e" stroke-linecap="butt" stroke-miterlimit="4" stroke-dasharray="none" stroke-width="5" fill="none"/>
 </g>
</svg>
