<?xml version="1.0" encoding="UTF-8" standalone="no"?>
<!-- Created with Inkscape (http://www.inkscape.org/) -->
<svg id="svg2" xmlns:rdf="http://www.w3.org/1999/02/22-rdf-syntax-ns#" xmlns="http://www.w3.org/2000/svg" height="94.964" width="94.582" version="1.1" xmlns:cc="http://creativecommons.org/ns#" xmlns:dc="http://purl.org/dc/elements/1.1/">
 <metadata id="metadata7">
  <rdf:RDF>
   <cc:Work rdf:about="">
    <dc:format>image/svg+xml</dc:format>
    <dc:type rdf:resource="http://purl.org/dc/dcmitype/StillImage"/>
    <dc:title/>
   </cc:Work>
  </rdf:RDF>
 </metadata>
 <g id="layer1" transform="translate(-2.7160288,-953.88151)">
  <path id="path2985" d="m98.237,45.452a49.245,45.457,0,1,1,-98.49,0,49.245,45.457,0,1,1,98.49,0z" transform="matrix(0.91163185,0,0,0.98760122,5.3369704,956.47396)" fill="#f5ec2e"/>
  <path id="path3759" d="m38.557,47.519a12.049,5.1767,0,1,1,-24.098,0,12.049,5.1767,0,1,1,24.098,0z" transform="translate(-11.25,950.31193)" fill="#ed2b24"/>
  <path id="path3759-3" d="m38.557,47.519a12.049,5.1767,0,1,1,-24.098,0,12.049,5.1767,0,1,1,24.098,0z" transform="translate(57.741909,948.5426)" fill="#ed2b24"/>
  <a id="a3787" transform="matrix(1.1305428,0,0,1.1622868,-5.8744256,-161.00671)"/>
  <a id="a3787-3" transform="matrix(-1.1272199,0,0,1.162454,104.44335,-159.9083)"/>
  <a id="a3787-5" transform="matrix(-1.1438997,0,0,1.1616561,108.11781,-158.17004)"/>
  <path id="path3905" stroke-linejoin="miter" d="m98.237,45.452a49.245,45.457,0,1,1,-98.49,0,49.245,45.457,0,1,1,98.49,0z" transform="matrix(0.91163185,0,0,0.98760122,5.3369704,956.47396)" stroke-dashoffset="0" stroke="#0e1d24" stroke-miterlimit="0.40000001000000002" stroke-dasharray="none" stroke-width="5.26950072999999986" fill="none"/>
  <path id="path3907" stroke-linejoin="miter" d="m17.337,970.83s20.581-7.4948,21.831,18.255" stroke="#0e1d24" stroke-linecap="butt" stroke-miterlimit="4" stroke-dasharray="none" stroke-width="2" fill="none"/>
  <path id="path3927" stroke-linejoin="miter" d="m3,50.214s38,26,89.75,0.75" transform="translate(2.7160288,953.88151)" stroke="#0e1d24" stroke-linecap="butt" stroke-miterlimit="4" stroke-dasharray="none" stroke-width="1.5" fill="none"/>
  <path id="path4071" stroke-linejoin="miter" d="M43.23,89.598c-11.037-1.131-21.406-6.601-28.334-14.948-4.051-4.881-7.1118-10.86-8.6153-16.829-0.5244-2.083-1.0799-5.278-0.9001-5.179,1.4685,0.81375,6.2969,3.0256,8.5049,3.8961,22.501,8.8703,47.461,8.3239,71.909-1.5739,1.7773-0.71952,3.2573-1.3082,3.2891-1.3082,0.11995,0-0.41968,2.7059-0.92498,4.6382-4.3446,16.614-18.589,29.029-35.743,31.153-1.9832,0.24553-7.3963,0.33474-9.1852,0.15137z" transform="translate(2.7160288,953.88151)" stroke-dashoffset="0" stroke="#0e1d24" stroke-miterlimit="4" stroke-dasharray="none" stroke-width="0.26516503" fill="#FFF"/>
  <path id="path3929" stroke-linejoin="miter" d="m14.716,1009.1,0.25,19.25" stroke="#0e1d24" stroke-linecap="butt" stroke-width="1px" fill="none"/>
  <path id="path3929-4" stroke-linejoin="miter" d="m24.735,1012.7,0.21274,24.339" stroke="#0e1d24" stroke-linecap="butt" stroke-width="1.03726363px" fill="none"/>
  <path id="path3929-6" stroke-linejoin="miter" d="m34.744,1014.8,0.19437,27.591" stroke="#0e1d24" stroke-linecap="butt" stroke-width="1.05563211px" fill="none"/>
  <path id="path3929-7" stroke-linejoin="miter" d="m44.746,1016.3,0.19081,28.295" stroke="#0e1d24" stroke-linecap="butt" stroke-width="1.0591867px" fill="none"/>
  <path id="path3929-7-5" stroke-linejoin="miter" d="m54.747,1016.3,0.18823,28.823" stroke="#0e1d24" stroke-linecap="butt" stroke-width="1.06176674px" fill="none"/>
  <path id="path3929-7-7" stroke-linejoin="miter" d="m64.833,1015,0.19302,27.855" stroke="#0e1d24" stroke-linecap="butt" stroke-width="1.05698073px" fill="none"/>
  <path id="path3929-7-7-7" stroke-linejoin="miter" d="m74.733,1012.9,0.21606,23.812" stroke="#0e1d24" stroke-linecap="butt" stroke-width="1.03394473px" fill="none"/>
  <path id="path3929-7-7-7-8" stroke-linejoin="miter" d="m84.716,1009.5,0.25,19.25" stroke="#0e1d24" stroke-linecap="butt" stroke-width="1px" fill="none"/>
  <path id="path3907-0" stroke-linejoin="miter" d="m83.91,970.83s-21.122-7.4851-22.405,18.232" stroke="#0e1d24" stroke-linecap="butt" stroke-miterlimit="4" stroke-dasharray="none" stroke-width="2.02481985" fill="none"/>
 </g>
</svg>
